# xmcd CD database file
#
# Track frame offsets:
#	150
#	32795
#	54211
#	72577
#	99564
#	122409
#	145038
#	177983
#	202873
#	230898
#	274314
#
# Disc length: 4011 seconds
#
# Revision: 0
# Processed by: cddbd v1.5.1PL0 Copyright (c) Steve Scherf et al.
# Submitted via: CDex 1.51
#
DISCID=9d0fa90b
DTITLE=Mariusz Bogdanowicz, ... - Polska Dusza
DYEAR=1900
DGENRE=Jazz
TTITLE0=Bliskosc ciszy
TTITLE1=Ksiezyc nad Koscieliskiem
TTITLE2=To nieprawda
TTITLE3=Polskie drogi
TTITLE4=Czterdziesci lat minelo
TTITLE5=Jej portret
TTITLE6=Wam jest do smiechu a mnie nie
TTITLE7=Czas rozpalic piec
TTITLE8=Cafe Boa
TTITLE9=Confiteor Song
TTITLE10=Walc dla Janusza
EXTD=
EXTT0=
EXTT1=
EXTT2=
EXTT3=
EXTT4=
EXTT5=
EXTT6=
EXTT7=
EXTT8=
EXTT9=
EXTT10=
PLAYORDER=
